<mxfile host="Electron" modified="2023-08-22T20:53:09.408Z" agent="Mozilla/5.0 (Windows NT 10.0; Win64; x64) AppleWebKit/537.36 (KHTML, like Gecko) draw.io/21.6.8 Chrome/114.0.5735.289 Electron/25.5.0 Safari/537.36" etag="_IIZXxsidpcMi1rR4Apb" version="21.6.8" type="device">
  <diagram id="fVxH4gl1ZDHUZJMIPg1-" name="Página-1">
    <mxGraphModel dx="3375" dy="2898" grid="0" gridSize="10" guides="1" tooltips="1" connect="1" arrows="1" fold="1" page="0" pageScale="1" pageWidth="827" pageHeight="1169" math="0" shadow="0">
      <root>
        <mxCell id="0" />
        <mxCell id="1" parent="0" />
        <mxCell id="gBbsB2kYZqVs6Wxo1NfM-8" value="" style="rounded=1;arcSize=10;dashed=0;fillColor=#ffe6cc;strokeWidth=2;shadow=0;strokeColor=#d79b00;" parent="1" vertex="1">
          <mxGeometry x="409" y="-476" width="591" height="680" as="geometry" />
        </mxCell>
        <mxCell id="gBbsB2kYZqVs6Wxo1NfM-9" value="Customers Resources" style="dashed=0;html=1;shape=mxgraph.aws3.instance;fillColor=#ffe6cc;dashed=0;shadow=0;strokeColor=#d79b00;" parent="1" vertex="1">
          <mxGeometry x="603" y="-491" width="180" height="32" as="geometry" />
        </mxCell>
        <mxCell id="4h1Zo0zShJHCh-uEzDZB-46" value="VPC SÃO PAULO" style="sketch=0;outlineConnect=0;gradientColor=none;html=1;whiteSpace=wrap;fontSize=12;fontStyle=0;shape=mxgraph.aws4.group;grIcon=mxgraph.aws4.group_vpc;strokeColor=#879196;fillColor=none;verticalAlign=top;align=left;spacingLeft=30;fontColor=#879196;dashed=0;labelBorderColor=#1A1A1A;" parent="1" vertex="1">
          <mxGeometry x="-587.75" y="-196" width="1600.75" height="409" as="geometry" />
        </mxCell>
        <mxCell id="4h1Zo0zShJHCh-uEzDZB-24" style="edgeStyle=orthogonalEdgeStyle;rounded=0;orthogonalLoop=1;jettySize=auto;html=1;entryX=0;entryY=0.25;entryDx=0;entryDy=0;entryPerimeter=0;" parent="1" source="iSTwg9xw4LvU0QaSz5UX-5" target="4h1Zo0zShJHCh-uEzDZB-23" edge="1">
          <mxGeometry relative="1" as="geometry">
            <Array as="points">
              <mxPoint x="602" y="-333" />
              <mxPoint x="602" y="-126" />
            </Array>
          </mxGeometry>
        </mxCell>
        <mxCell id="4h1Zo0zShJHCh-uEzDZB-9" style="edgeStyle=orthogonalEdgeStyle;rounded=0;orthogonalLoop=1;jettySize=auto;html=1;" parent="1" source="4h1Zo0zShJHCh-uEzDZB-51" target="4h1Zo0zShJHCh-uEzDZB-8" edge="1">
          <mxGeometry relative="1" as="geometry" />
        </mxCell>
        <mxCell id="4h1Zo0zShJHCh-uEzDZB-70" style="edgeStyle=orthogonalEdgeStyle;rounded=0;orthogonalLoop=1;jettySize=auto;html=1;entryX=0.5;entryY=0;entryDx=0;entryDy=0;entryPerimeter=0;fontSize=12;exitX=0.954;exitY=0.757;exitDx=0;exitDy=0;exitPerimeter=0;" parent="1" source="4h1Zo0zShJHCh-uEzDZB-27" target="4h1Zo0zShJHCh-uEzDZB-67" edge="1">
          <mxGeometry relative="1" as="geometry">
            <Array as="points">
              <mxPoint x="-15" y="-1100" />
              <mxPoint x="852" y="-1100" />
            </Array>
            <mxPoint x="-13" y="-1053.058823529412" as="sourcePoint" />
          </mxGeometry>
        </mxCell>
        <mxCell id="4h1Zo0zShJHCh-uEzDZB-13" style="edgeStyle=orthogonalEdgeStyle;rounded=0;orthogonalLoop=1;jettySize=auto;html=1;" parent="1" source="4h1Zo0zShJHCh-uEzDZB-8" target="4h1Zo0zShJHCh-uEzDZB-10" edge="1">
          <mxGeometry relative="1" as="geometry" />
        </mxCell>
        <mxCell id="gBbsB2kYZqVs6Wxo1NfM-20" style="edgeStyle=orthogonalEdgeStyle;rounded=0;orthogonalLoop=1;jettySize=auto;html=1;entryX=0.5;entryY=0;entryDx=0;entryDy=0;entryPerimeter=0;" parent="1" source="4h1Zo0zShJHCh-uEzDZB-8" target="gBbsB2kYZqVs6Wxo1NfM-13" edge="1">
          <mxGeometry relative="1" as="geometry" />
        </mxCell>
        <mxCell id="4h1Zo0zShJHCh-uEzDZB-8" value="API GATEWAY" style="outlineConnect=0;dashed=0;verticalLabelPosition=bottom;verticalAlign=top;align=center;html=1;shape=mxgraph.aws3.api_gateway;fillColor=#D9A741;gradientColor=none;" parent="1" vertex="1">
          <mxGeometry x="-483.5" y="-548" width="76.5" height="93" as="geometry" />
        </mxCell>
        <mxCell id="4h1Zo0zShJHCh-uEzDZB-19" style="edgeStyle=orthogonalEdgeStyle;rounded=0;orthogonalLoop=1;jettySize=auto;html=1;exitX=1;exitY=0.5;exitDx=0;exitDy=0;exitPerimeter=0;" parent="1" source="4h1Zo0zShJHCh-uEzDZB-10" target="4h1Zo0zShJHCh-uEzDZB-14" edge="1">
          <mxGeometry relative="1" as="geometry">
            <Array as="points">
              <mxPoint x="-250" y="-328" />
            </Array>
          </mxGeometry>
        </mxCell>
        <mxCell id="4h1Zo0zShJHCh-uEzDZB-10" value="API REFRESH TOKEN" style="outlineConnect=0;dashed=0;verticalLabelPosition=bottom;verticalAlign=top;align=center;html=1;shape=mxgraph.aws3.lambda_function;fillColor=#F58534;gradientColor=none;" parent="1" vertex="1">
          <mxGeometry x="-381.5" y="-364" width="69" height="72" as="geometry" />
        </mxCell>
        <mxCell id="4h1Zo0zShJHCh-uEzDZB-37" style="edgeStyle=orthogonalEdgeStyle;rounded=0;orthogonalLoop=1;jettySize=auto;html=1;fontSize=12;exitX=0;exitY=0.5;exitDx=0;exitDy=0;exitPerimeter=0;" parent="1" source="4h1Zo0zShJHCh-uEzDZB-14" target="4h1Zo0zShJHCh-uEzDZB-36" edge="1">
          <mxGeometry relative="1" as="geometry">
            <Array as="points">
              <mxPoint x="-354" y="-134" />
              <mxPoint x="-354" y="-6" />
            </Array>
          </mxGeometry>
        </mxCell>
        <mxCell id="4h1Zo0zShJHCh-uEzDZB-14" value="RDS MANAGEMENT" style="outlineConnect=0;dashed=0;verticalLabelPosition=bottom;verticalAlign=top;align=center;html=1;shape=mxgraph.aws3.rds;fillColor=#2E73B8;gradientColor=none;" parent="1" vertex="1">
          <mxGeometry x="-302.5" y="-175" width="72" height="81" as="geometry" />
        </mxCell>
        <mxCell id="4h1Zo0zShJHCh-uEzDZB-38" style="edgeStyle=orthogonalEdgeStyle;rounded=0;orthogonalLoop=1;jettySize=auto;html=1;fontSize=12;" parent="1" source="4h1Zo0zShJHCh-uEzDZB-17" target="4h1Zo0zShJHCh-uEzDZB-34" edge="1">
          <mxGeometry relative="1" as="geometry" />
        </mxCell>
        <mxCell id="4h1Zo0zShJHCh-uEzDZB-17" value="BASE RDS Customer" style="outlineConnect=0;dashed=0;verticalLabelPosition=bottom;verticalAlign=top;align=center;html=1;shape=mxgraph.aws3.rds;fillColor=#2E73B8;gradientColor=none;" parent="1" vertex="1">
          <mxGeometry x="474" y="-86" width="72" height="81" as="geometry" />
        </mxCell>
        <mxCell id="4h1Zo0zShJHCh-uEzDZB-23" value="BUCKET - CUSTOMER - PRIVATE&lt;br&gt;Images,&lt;span style=&quot;border-color: var(--border-color); color: rgb(0, 0, 0); text-align: left; background-color: initial;&quot;&gt;BackUps etc.&amp;nbsp;&lt;/span&gt;" style="sketch=0;points=[[0,0,0],[0.25,0,0],[0.5,0,0],[0.75,0,0],[1,0,0],[0,1,0],[0.25,1,0],[0.5,1,0],[0.75,1,0],[1,1,0],[0,0.25,0],[0,0.5,0],[0,0.75,0],[1,0.25,0],[1,0.5,0],[1,0.75,0]];outlineConnect=0;fontColor=#232F3E;gradientColor=#60A337;gradientDirection=north;fillColor=#277116;strokeColor=#ffffff;dashed=0;verticalLabelPosition=bottom;verticalAlign=top;align=center;html=1;fontSize=12;fontStyle=0;aspect=fixed;shape=mxgraph.aws4.resourceIcon;resIcon=mxgraph.aws4.s3;" parent="1" vertex="1">
          <mxGeometry x="809" y="-146" width="78" height="78" as="geometry" />
        </mxCell>
        <mxCell id="4h1Zo0zShJHCh-uEzDZB-64" style="edgeStyle=orthogonalEdgeStyle;rounded=0;orthogonalLoop=1;jettySize=auto;html=1;fontSize=12;" parent="1" source="4h1Zo0zShJHCh-uEzDZB-25" edge="1">
          <mxGeometry relative="1" as="geometry">
            <mxPoint x="-61.5" y="-1142" as="targetPoint" />
          </mxGeometry>
        </mxCell>
        <mxCell id="4h1Zo0zShJHCh-uEzDZB-25" value="XAMARIN APP" style="html=1;verticalLabelPosition=bottom;align=center;labelBackgroundColor=#ffffff;verticalAlign=top;strokeWidth=2;strokeColor=#0080F0;shadow=0;dashed=0;shape=mxgraph.ios7.icons.smartphone;" parent="1" vertex="1">
          <mxGeometry x="-231.5" y="-1282" width="51.75" height="107.25" as="geometry" />
        </mxCell>
        <mxCell id="4h1Zo0zShJHCh-uEzDZB-29" style="edgeStyle=orthogonalEdgeStyle;rounded=0;orthogonalLoop=1;jettySize=auto;html=1;" parent="1" source="xfO7kdJa8CP5MQ5Vo7VV-1" target="4h1Zo0zShJHCh-uEzDZB-51" edge="1">
          <mxGeometry relative="1" as="geometry">
            <mxPoint x="-62" y="-1102" as="targetPoint" />
          </mxGeometry>
        </mxCell>
        <mxCell id="4h1Zo0zShJHCh-uEzDZB-27" value="INTERNET" style="html=1;verticalLabelPosition=bottom;align=center;labelBackgroundColor=#ffffff;verticalAlign=top;strokeWidth=2;strokeColor=#0080F0;shadow=0;dashed=0;shape=mxgraph.ios7.icons.cloud;" parent="1" vertex="1">
          <mxGeometry x="-110.5" y="-1142" width="100" height="60" as="geometry" />
        </mxCell>
        <mxCell id="4h1Zo0zShJHCh-uEzDZB-63" style="edgeStyle=orthogonalEdgeStyle;rounded=0;orthogonalLoop=1;jettySize=auto;html=1;fontSize=12;" parent="1" source="4h1Zo0zShJHCh-uEzDZB-33" target="4h1Zo0zShJHCh-uEzDZB-27" edge="1">
          <mxGeometry relative="1" as="geometry" />
        </mxCell>
        <mxCell id="4h1Zo0zShJHCh-uEzDZB-33" value="WEB APPLICATION" style="shape=image;html=1;verticalAlign=top;verticalLabelPosition=bottom;labelBackgroundColor=#ffffff;imageAspect=0;aspect=fixed;image=https://cdn1.iconfinder.com/data/icons/seo-and-web-development-6/32/Web_website_favorite_site_star-128.png;fontSize=12;" parent="1" vertex="1">
          <mxGeometry x="37.5" y="-1292" width="127.5" height="127.5" as="geometry" />
        </mxCell>
        <mxCell id="NZQ2-SlajWETdj_k92VK-51" style="edgeStyle=orthogonalEdgeStyle;rounded=0;orthogonalLoop=1;jettySize=auto;html=1;" parent="1" source="4h1Zo0zShJHCh-uEzDZB-34" target="4h1Zo0zShJHCh-uEzDZB-23" edge="1">
          <mxGeometry relative="1" as="geometry">
            <Array as="points">
              <mxPoint x="740" y="-45" />
              <mxPoint x="740" y="-107" />
            </Array>
          </mxGeometry>
        </mxCell>
        <mxCell id="4h1Zo0zShJHCh-uEzDZB-34" value="BACKUP" style="sketch=0;outlineConnect=0;fontColor=#232F3E;gradientColor=none;fillColor=#3F8624;strokeColor=none;dashed=0;verticalLabelPosition=bottom;verticalAlign=top;align=center;html=1;fontSize=12;fontStyle=0;aspect=fixed;pointerEvents=1;shape=mxgraph.aws4.backup_database;" parent="1" vertex="1">
          <mxGeometry x="614" y="-84" width="78" height="77" as="geometry" />
        </mxCell>
        <mxCell id="NZQ2-SlajWETdj_k92VK-43" style="edgeStyle=orthogonalEdgeStyle;rounded=0;orthogonalLoop=1;jettySize=auto;html=1;entryX=0;entryY=0.5;entryDx=0;entryDy=0;entryPerimeter=0;" parent="1" source="4h1Zo0zShJHCh-uEzDZB-36" target="NZQ2-SlajWETdj_k92VK-41" edge="1">
          <mxGeometry relative="1" as="geometry">
            <Array as="points" />
          </mxGeometry>
        </mxCell>
        <mxCell id="4h1Zo0zShJHCh-uEzDZB-36" value="BACKUP" style="sketch=0;outlineConnect=0;fontColor=#232F3E;gradientColor=none;fillColor=#3F8624;strokeColor=none;dashed=0;verticalLabelPosition=bottom;verticalAlign=top;align=center;html=1;fontSize=12;fontStyle=0;aspect=fixed;pointerEvents=1;shape=mxgraph.aws4.backup_database;" parent="1" vertex="1">
          <mxGeometry x="-273.5" y="-37.5" width="78" height="77" as="geometry" />
        </mxCell>
        <mxCell id="4h1Zo0zShJHCh-uEzDZB-44" style="edgeStyle=orthogonalEdgeStyle;rounded=0;orthogonalLoop=1;jettySize=auto;html=1;fontSize=12;exitX=0.5;exitY=1;exitDx=0;exitDy=0;exitPerimeter=0;" parent="1" source="4h1Zo0zShJHCh-uEzDZB-43" target="4h1Zo0zShJHCh-uEzDZB-46" edge="1">
          <mxGeometry relative="1" as="geometry">
            <mxPoint x="-563.5" y="-65.90909090909099" as="targetPoint" />
            <Array as="points">
              <mxPoint x="-699.5" y="-66" />
            </Array>
          </mxGeometry>
        </mxCell>
        <mxCell id="4h1Zo0zShJHCh-uEzDZB-45" style="edgeStyle=orthogonalEdgeStyle;rounded=0;orthogonalLoop=1;jettySize=auto;html=1;fontSize=12;exitX=0.5;exitY=0;exitDx=0;exitDy=0;exitPerimeter=0;" parent="1" source="4h1Zo0zShJHCh-uEzDZB-43" target="4h1Zo0zShJHCh-uEzDZB-47" edge="1">
          <mxGeometry relative="1" as="geometry">
            <mxPoint x="-563.5" y="-411.0000000000002" as="targetPoint" />
            <Array as="points">
              <mxPoint x="-699.5" y="-411" />
            </Array>
          </mxGeometry>
        </mxCell>
        <mxCell id="4h1Zo0zShJHCh-uEzDZB-43" value="VPC PEERING" style="outlineConnect=0;dashed=0;verticalLabelPosition=bottom;verticalAlign=top;align=center;html=1;shape=mxgraph.aws3.vpc_peering;fillColor=#F58536;gradientColor=none;fontSize=12;" parent="1" vertex="1">
          <mxGeometry x="-733.5" y="-268" width="69" height="72" as="geometry" />
        </mxCell>
        <mxCell id="XqH27Nu7zq0Zo16ov4HN-21" style="edgeStyle=orthogonalEdgeStyle;rounded=0;orthogonalLoop=1;jettySize=auto;html=1;" edge="1" parent="1" source="4h1Zo0zShJHCh-uEzDZB-51" target="iSTwg9xw4LvU0QaSz5UX-5">
          <mxGeometry relative="1" as="geometry" />
        </mxCell>
        <mxCell id="4h1Zo0zShJHCh-uEzDZB-51" value="INTERNET GATEWAY" style="sketch=0;outlineConnect=0;fontColor=#232F3E;gradientColor=none;fillColor=#4D27AA;strokeColor=none;dashed=0;verticalLabelPosition=bottom;verticalAlign=top;align=center;html=1;fontSize=12;fontStyle=0;aspect=fixed;pointerEvents=1;shape=mxgraph.aws4.internet_gateway;labelBorderColor=#1A1A1A;" parent="1" vertex="1">
          <mxGeometry x="-100" y="-823" width="78" height="78" as="geometry" />
        </mxCell>
        <mxCell id="4h1Zo0zShJHCh-uEzDZB-58" style="edgeStyle=orthogonalEdgeStyle;rounded=0;orthogonalLoop=1;jettySize=auto;html=1;fontSize=12;" parent="1" target="4h1Zo0zShJHCh-uEzDZB-25" edge="1">
          <mxGeometry relative="1" as="geometry">
            <mxPoint x="-351.5" y="-1227.8571428571427" as="sourcePoint" />
          </mxGeometry>
        </mxCell>
        <mxCell id="4h1Zo0zShJHCh-uEzDZB-62" style="edgeStyle=orthogonalEdgeStyle;rounded=0;orthogonalLoop=1;jettySize=auto;html=1;fontSize=12;" parent="1" source="4h1Zo0zShJHCh-uEzDZB-61" target="4h1Zo0zShJHCh-uEzDZB-33" edge="1">
          <mxGeometry relative="1" as="geometry" />
        </mxCell>
        <mxCell id="4h1Zo0zShJHCh-uEzDZB-61" value="" style="shape=umlActor;verticalLabelPosition=bottom;verticalAlign=top;html=1;outlineConnect=0;labelBorderColor=#1A1A1A;fontSize=12;" parent="1" vertex="1">
          <mxGeometry x="249.5" y="-1283.75" width="50" height="110" as="geometry" />
        </mxCell>
        <mxCell id="4h1Zo0zShJHCh-uEzDZB-66" value="" style="shape=umlActor;verticalLabelPosition=bottom;verticalAlign=top;html=1;outlineConnect=0;labelBorderColor=#1A1A1A;fontSize=12;" parent="1" vertex="1">
          <mxGeometry x="-381.5" y="-1291" width="50" height="110" as="geometry" />
        </mxCell>
        <mxCell id="4h1Zo0zShJHCh-uEzDZB-67" value="BUCKET - CUSTOMER - PUBLIC&lt;br&gt;FrontEnd" style="sketch=0;points=[[0,0,0],[0.25,0,0],[0.5,0,0],[0.75,0,0],[1,0,0],[0,1,0],[0.25,1,0],[0.5,1,0],[0.75,1,0],[1,1,0],[0,0.25,0],[0,0.5,0],[0,0.75,0],[1,0.25,0],[1,0.5,0],[1,0.75,0]];outlineConnect=0;fontColor=#232F3E;gradientColor=#60A337;gradientDirection=north;fillColor=#277116;strokeColor=#ffffff;dashed=0;verticalLabelPosition=bottom;verticalAlign=top;align=center;html=1;fontSize=12;fontStyle=0;aspect=fixed;shape=mxgraph.aws4.resourceIcon;resIcon=mxgraph.aws4.s3;" parent="1" vertex="1">
          <mxGeometry x="817" y="-384" width="71" height="71" as="geometry" />
        </mxCell>
        <mxCell id="4h1Zo0zShJHCh-uEzDZB-68" style="edgeStyle=orthogonalEdgeStyle;rounded=0;orthogonalLoop=1;jettySize=auto;html=1;exitX=0.5;exitY=1;exitDx=0;exitDy=0;exitPerimeter=0;fontSize=12;" parent="1" source="4h1Zo0zShJHCh-uEzDZB-23" target="4h1Zo0zShJHCh-uEzDZB-23" edge="1">
          <mxGeometry relative="1" as="geometry" />
        </mxCell>
        <mxCell id="gBbsB2kYZqVs6Wxo1NfM-15" style="edgeStyle=orthogonalEdgeStyle;rounded=0;orthogonalLoop=1;jettySize=auto;html=1;exitX=1;exitY=0.5;exitDx=0;exitDy=0;exitPerimeter=0;" parent="1" source="gBbsB2kYZqVs6Wxo1NfM-13" target="4h1Zo0zShJHCh-uEzDZB-14" edge="1">
          <mxGeometry relative="1" as="geometry">
            <Array as="points">
              <mxPoint x="-441" y="-328" />
              <mxPoint x="-441" y="-240" />
              <mxPoint x="-266" y="-240" />
            </Array>
          </mxGeometry>
        </mxCell>
        <mxCell id="gBbsB2kYZqVs6Wxo1NfM-13" value="API LOGIN" style="outlineConnect=0;dashed=0;verticalLabelPosition=bottom;verticalAlign=top;align=center;html=1;shape=mxgraph.aws3.lambda_function;fillColor=#F58534;gradientColor=none;" parent="1" vertex="1">
          <mxGeometry x="-553.5" y="-364" width="69" height="72" as="geometry" />
        </mxCell>
        <mxCell id="NZQ2-SlajWETdj_k92VK-35" style="edgeStyle=orthogonalEdgeStyle;rounded=0;orthogonalLoop=1;jettySize=auto;html=1;" parent="1" source="iSTwg9xw4LvU0QaSz5UX-5" target="4h1Zo0zShJHCh-uEzDZB-17" edge="1">
          <mxGeometry relative="1" as="geometry" />
        </mxCell>
        <mxCell id="XqH27Nu7zq0Zo16ov4HN-11" style="edgeStyle=orthogonalEdgeStyle;rounded=0;orthogonalLoop=1;jettySize=auto;html=1;exitX=0;exitY=0.5;exitDx=0;exitDy=0;entryX=0.97;entryY=0.455;entryDx=0;entryDy=0;entryPerimeter=0;" edge="1" parent="1" source="iSTwg9xw4LvU0QaSz5UX-5" target="iSTwg9xw4LvU0QaSz5UX-3">
          <mxGeometry relative="1" as="geometry" />
        </mxCell>
        <mxCell id="iSTwg9xw4LvU0QaSz5UX-5" value="API.SYNC&lt;br&gt;&amp;nbsp;Auto Scaling" style="shape=image;html=1;verticalAlign=top;verticalLabelPosition=bottom;labelBackgroundColor=#ffffff;imageAspect=0;aspect=fixed;image=https://cdn1.iconfinder.com/data/icons/unicons-line-vol-3/24/docker-128.png" parent="1" vertex="1">
          <mxGeometry x="464.75" y="-397" width="92" height="92" as="geometry" />
        </mxCell>
        <mxCell id="iSTwg9xw4LvU0QaSz5UX-3" value="Redis - Cache" style="sketch=0;aspect=fixed;html=1;points=[];align=center;image;fontSize=12;image=img/lib/mscae/Cache_Redis_Product.svg;" parent="1" vertex="1">
          <mxGeometry x="292.5" y="-376" width="65.48" height="55" as="geometry" />
        </mxCell>
        <mxCell id="XqH27Nu7zq0Zo16ov4HN-16" style="edgeStyle=orthogonalEdgeStyle;rounded=0;orthogonalLoop=1;jettySize=auto;html=1;entryX=1;entryY=0.5;entryDx=0;entryDy=0;entryPerimeter=0;" edge="1" parent="1" source="NZQ2-SlajWETdj_k92VK-8" target="4h1Zo0zShJHCh-uEzDZB-14">
          <mxGeometry relative="1" as="geometry" />
        </mxCell>
        <mxCell id="NZQ2-SlajWETdj_k92VK-8" value="API: MANAGER&lt;br&gt;" style="shape=image;html=1;verticalAlign=top;verticalLabelPosition=bottom;labelBackgroundColor=#ffffff;imageAspect=0;aspect=fixed;image=https://cdn1.iconfinder.com/data/icons/unicons-line-vol-3/24/docker-128.png" parent="1" vertex="1">
          <mxGeometry x="-94" y="-403" width="87" height="87" as="geometry" />
        </mxCell>
        <mxCell id="XqH27Nu7zq0Zo16ov4HN-12" style="edgeStyle=orthogonalEdgeStyle;rounded=0;orthogonalLoop=1;jettySize=auto;html=1;entryX=1;entryY=0.78;entryDx=0;entryDy=0;entryPerimeter=0;" edge="1" parent="1" source="NZQ2-SlajWETdj_k92VK-17" target="4h1Zo0zShJHCh-uEzDZB-14">
          <mxGeometry relative="1" as="geometry">
            <Array as="points">
              <mxPoint x="212" y="-112" />
            </Array>
          </mxGeometry>
        </mxCell>
        <mxCell id="NZQ2-SlajWETdj_k92VK-17" value="Grafana: Monitoring" style="image;aspect=fixed;html=1;points=[];align=center;fontSize=12;image=img/lib/azure2/other/Grafana.svg;" parent="1" vertex="1">
          <mxGeometry x="182.5" y="-379.8" width="68" height="52.800000000000004" as="geometry" />
        </mxCell>
        <mxCell id="NZQ2-SlajWETdj_k92VK-41" value="BUCKET - Manager" style="sketch=0;points=[[0,0,0],[0.25,0,0],[0.5,0,0],[0.75,0,0],[1,0,0],[0,1,0],[0.25,1,0],[0.5,1,0],[0.75,1,0],[1,1,0],[0,0.25,0],[0,0.5,0],[0,0.75,0],[1,0.25,0],[1,0.5,0],[1,0.75,0]];outlineConnect=0;fontColor=#232F3E;gradientColor=#60A337;gradientDirection=north;fillColor=#277116;strokeColor=#ffffff;dashed=0;verticalLabelPosition=bottom;verticalAlign=top;align=center;html=1;fontSize=12;fontStyle=0;aspect=fixed;shape=mxgraph.aws4.resourceIcon;resIcon=mxgraph.aws4.s3;" parent="1" vertex="1">
          <mxGeometry x="-62" y="-33.5" width="71" height="71" as="geometry" />
        </mxCell>
        <mxCell id="XqH27Nu7zq0Zo16ov4HN-13" style="edgeStyle=orthogonalEdgeStyle;rounded=0;orthogonalLoop=1;jettySize=auto;html=1;entryX=0;entryY=0.75;entryDx=0;entryDy=0;" edge="1" parent="1" source="-7YsmLxZoggPCO3vJ49t-5" target="iSTwg9xw4LvU0QaSz5UX-5">
          <mxGeometry relative="1" as="geometry">
            <Array as="points">
              <mxPoint x="81" y="-252" />
              <mxPoint x="439" y="-252" />
              <mxPoint x="439" y="-328" />
            </Array>
          </mxGeometry>
        </mxCell>
        <mxCell id="-7YsmLxZoggPCO3vJ49t-5" value="Jenkins - PipeLine" style="outlineConnect=0;dashed=0;verticalLabelPosition=bottom;verticalAlign=top;align=center;html=1;shape=mxgraph.aws3.codepipeline;fillColor=#759C3E;gradientColor=none;" parent="1" vertex="1">
          <mxGeometry x="53" y="-395" width="55" height="68" as="geometry" />
        </mxCell>
        <mxCell id="XqH27Nu7zq0Zo16ov4HN-18" style="edgeStyle=orthogonalEdgeStyle;rounded=0;orthogonalLoop=1;jettySize=auto;html=1;exitX=0.5;exitY=1;exitDx=0;exitDy=0;" edge="1" parent="1" source="-7YsmLxZoggPCO3vJ49t-6" target="XqH27Nu7zq0Zo16ov4HN-17">
          <mxGeometry relative="1" as="geometry" />
        </mxCell>
        <mxCell id="-7YsmLxZoggPCO3vJ49t-6" value="BitBucket - Repository&amp;nbsp;" style="image;html=1;image=img/lib/atlassian/Bitbucket_Logo.svg;" parent="1" vertex="1">
          <mxGeometry x="199.5" y="-954.5" width="57" height="50" as="geometry" />
        </mxCell>
        <mxCell id="XqH27Nu7zq0Zo16ov4HN-8" style="edgeStyle=orthogonalEdgeStyle;rounded=0;orthogonalLoop=1;jettySize=auto;html=1;entryX=0.481;entryY=0.055;entryDx=0;entryDy=0;entryPerimeter=0;" edge="1" parent="1" source="-7YsmLxZoggPCO3vJ49t-3" target="iSTwg9xw4LvU0QaSz5UX-3">
          <mxGeometry relative="1" as="geometry" />
        </mxCell>
        <mxCell id="XqH27Nu7zq0Zo16ov4HN-9" style="edgeStyle=orthogonalEdgeStyle;rounded=0;orthogonalLoop=1;jettySize=auto;html=1;entryX=0.507;entryY=0.038;entryDx=0;entryDy=0;entryPerimeter=0;" edge="1" parent="1" source="-7YsmLxZoggPCO3vJ49t-3" target="NZQ2-SlajWETdj_k92VK-17">
          <mxGeometry relative="1" as="geometry">
            <Array as="points">
              <mxPoint x="217" y="-522" />
            </Array>
          </mxGeometry>
        </mxCell>
        <mxCell id="XqH27Nu7zq0Zo16ov4HN-10" style="edgeStyle=orthogonalEdgeStyle;rounded=0;orthogonalLoop=1;jettySize=auto;html=1;entryX=0.5;entryY=0;entryDx=0;entryDy=0;" edge="1" parent="1" source="-7YsmLxZoggPCO3vJ49t-3" target="NZQ2-SlajWETdj_k92VK-8">
          <mxGeometry relative="1" as="geometry" />
        </mxCell>
        <mxCell id="XqH27Nu7zq0Zo16ov4HN-15" style="edgeStyle=orthogonalEdgeStyle;rounded=0;orthogonalLoop=1;jettySize=auto;html=1;exitX=0;exitY=0.75;exitDx=0;exitDy=0;exitPerimeter=0;" edge="1" parent="1" source="-7YsmLxZoggPCO3vJ49t-3" target="-7YsmLxZoggPCO3vJ49t-5">
          <mxGeometry relative="1" as="geometry">
            <Array as="points">
              <mxPoint x="105" y="-499" />
              <mxPoint x="81" y="-499" />
            </Array>
          </mxGeometry>
        </mxCell>
        <mxCell id="-7YsmLxZoggPCO3vJ49t-3" value="APP RUNNER" style="sketch=0;points=[[0,0,0],[0.25,0,0],[0.5,0,0],[0.75,0,0],[1,0,0],[0,1,0],[0.25,1,0],[0.5,1,0],[0.75,1,0],[1,1,0],[0,0.25,0],[0,0.5,0],[0,0.75,0],[1,0.25,0],[1,0.5,0],[1,0.75,0]];outlineConnect=0;fontColor=#232F3E;gradientColor=#F78E04;gradientDirection=north;fillColor=#D05C17;strokeColor=#ffffff;dashed=0;verticalLabelPosition=bottom;verticalAlign=top;align=center;html=1;fontSize=12;fontStyle=0;aspect=fixed;shape=mxgraph.aws4.resourceIcon;resIcon=mxgraph.aws4.app_runner;" parent="1" vertex="1">
          <mxGeometry x="104.5" y="-561" width="78" height="78" as="geometry" />
        </mxCell>
        <mxCell id="xfO7kdJa8CP5MQ5Vo7VV-2" value="" style="edgeStyle=orthogonalEdgeStyle;rounded=0;orthogonalLoop=1;jettySize=auto;html=1;entryX=0.5;entryY=0;entryDx=0;entryDy=0;entryPerimeter=0;" parent="1" source="4h1Zo0zShJHCh-uEzDZB-27" target="xfO7kdJa8CP5MQ5Vo7VV-1" edge="1">
          <mxGeometry relative="1" as="geometry">
            <mxPoint x="-58.214285714285325" y="-1061" as="targetPoint" />
            <mxPoint x="-60.5" y="-1082" as="sourcePoint" />
          </mxGeometry>
        </mxCell>
        <mxCell id="xfO7kdJa8CP5MQ5Vo7VV-1" value="WAF" style="outlineConnect=0;dashed=0;verticalLabelPosition=bottom;verticalAlign=top;align=center;html=1;shape=mxgraph.aws3.waf;fillColor=#759C3E;gradientColor=none;" parent="1" vertex="1">
          <mxGeometry x="-99" y="-976" width="76.5" height="93" as="geometry" />
        </mxCell>
        <mxCell id="XqH27Nu7zq0Zo16ov4HN-17" value="APP RUNNER" style="sketch=0;outlineConnect=0;gradientColor=none;html=1;whiteSpace=wrap;fontSize=12;fontStyle=0;shape=mxgraph.aws4.group;grIcon=mxgraph.aws4.group_vpc;strokeColor=#879196;fillColor=none;verticalAlign=top;align=left;spacingLeft=30;fontColor=#879196;dashed=0;labelBorderColor=#1A1A1A;" vertex="1" parent="1">
          <mxGeometry x="-115" y="-569" width="686" height="331" as="geometry" />
        </mxCell>
        <mxCell id="4h1Zo0zShJHCh-uEzDZB-47" value="VPC&amp;nbsp; - VIRGINIA" style="sketch=0;outlineConnect=0;gradientColor=none;html=1;whiteSpace=wrap;fontSize=12;fontStyle=0;shape=mxgraph.aws4.group;grIcon=mxgraph.aws4.group_vpc;strokeColor=#879196;fillColor=none;verticalAlign=top;align=left;spacingLeft=30;fontColor=#879196;dashed=0;labelBorderColor=#1A1A1A;" parent="1" vertex="1">
          <mxGeometry x="-587.75" y="-699" width="1600.75" height="471" as="geometry" />
        </mxCell>
      </root>
    </mxGraphModel>
  </diagram>
</mxfile>
